<?xml version="1.0" standalone="no"?>
<!DOCTYPE svg PUBLIC "-//W3C//DTD SVG 20010904//EN"
 "http://www.w3.org/TR/2001/REC-SVG-20010904/DTD/svg10.dtd">
<svg version="1.0" xmlns="http://www.w3.org/2000/svg"
 width="557.000000pt" height="364.000000pt" viewBox="0 0 557.000000 364.000000"
 preserveAspectRatio="xMidYMid meet">

<g transform="translate(0.000000,364.000000) scale(0.100000,-0.100000)"
fill="#000000" stroke="none">
<path d="M2980 3583 c-279 -29 -612 -175 -888 -390 -119 -93 -139 -111 -329
-290 -204 -192 -188 -193 -399 20 -226 228 -334 300 -450 301 -74 1 -111 -20
-133 -78 -12 -32 -12 -50 2 -136 20 -124 68 -252 149 -400 58 -106 63 -120 63
-175 -1 -52 -10 -79 -67 -205 -98 -216 -148 -392 -148 -520 0 -105 43 -149
133 -136 111 17 257 116 457 312 80 78 156 147 168 153 36 19 67 6 173 -69
279 -199 581 -366 806 -445 457 -160 867 -174 1252 -43 73 24 95 28 147 22 75
-7 165 14 241 57 246 141 511 424 631 676 33 69 37 87 37 153 0 62 -5 84 -27
126 -99 190 -348 472 -583 661 -230 185 -467 306 -730 372 -137 35 -356 50
-505 34z m449 -219 c224 -49 455 -166 666 -335 183 -147 432 -421 520 -572 33
-58 30 -89 -19 -162 -68 -102 -254 -288 -354 -355 -43 -29 -52 -31 -108 -27
-118 9 -238 97 -292 215 -32 70 -36 169 -10 222 18 35 160 166 291 269 37 29
64 57 61 63 -10 16 -64 35 -120 43 -147 19 -350 -81 -468 -231 -183 -234 -192
-588 -20 -801 19 -23 34 -46 34 -51 0 -13 -149 -40 -295 -53 -202 -18 -459 20
-702 105 -240 84 -448 193 -703 369 -341 236 -378 235 -635 -12 -78 -75 -176
-164 -218 -199 -64 -53 -77 -60 -77 -43 0 37 61 214 120 346 89 200 104 267
79 360 -6 22 -43 105 -83 185 -71 140 -134 305 -122 317 14 14 103 -61 257
-217 195 -198 234 -223 344 -224 94 -1 145 28 293 164 427 394 642 532 957
615 170 45 428 49 604 9z"/>
<path d="M3039 705 c-62 -23 -116 -65 -153 -118 -48 -72 -59 -116 -54 -206 8
-125 73 -222 183 -273 41 -19 67 -23 145 -23 86 0 100 3 147 29 29 16 61 38
72 50 l21 22 -34 33 -33 32 -54 -28 c-45 -23 -66 -28 -126 -28 -63 0 -76 3
-114 30 -23 17 -53 50 -66 74 -42 80 -24 201 38 258 76 69 213 70 286 1 l23
-22 35 34 c19 19 35 39 35 46 0 20 -70 72 -119 89 -54 18 -182 19 -232 0z"/>
<path d="M3705 692 c-69 -33 -114 -74 -153 -140 -25 -43 -27 -56 -27 -152 0
-121 13 -156 87 -226 73 -71 118 -88 228 -89 113 0 162 18 239 90 69 64 95
128 95 230 -1 126 -56 220 -165 280 -47 25 -67 30 -149 33 -88 3 -99 1 -155
-26z m228 -96 c80 -33 134 -129 124 -218 -25 -206 -304 -259 -399 -74 -26 51
-29 147 -6 191 20 37 63 79 103 99 37 20 134 21 178 2z"/>
<path d="M60 400 l0 -310 215 0 215 0 0 55 0 55 -160 0 -160 0 0 255 0 255
-55 0 -55 0 0 -310z"/>
<path d="M632 483 c3 -213 4 -231 25 -270 60 -112 208 -161 350 -116 69 22
115 61 147 125 26 51 26 55 26 270 l0 218 -55 0 -55 0 0 -181 c0 -99 -5 -199
-11 -223 -20 -81 -88 -124 -180 -113 -59 7 -84 22 -112 67 -20 33 -22 49 -25
243 l-3 207 -55 0 -55 0 3 -227z"/>
<path d="M1370 400 l0 -310 55 0 55 0 2 206 3 206 102 -184 c55 -100 106 -183
113 -183 10 0 112 175 182 313 12 23 26 42 30 42 4 0 8 -90 8 -200 l0 -200 55
0 55 0 0 310 0 310 -59 0 -59 0 -80 -142 c-44 -79 -89 -162 -101 -185 -12 -24
-25 -43 -29 -43 -4 0 -53 83 -107 185 l-100 184 -62 1 -63 0 0 -310z"/>
<path d="M2224 403 l1 -308 58 -3 57 -3 0 101 0 100 83 0 c139 0 219 36 257
115 21 44 28 122 15 167 -12 40 -54 87 -98 110 -37 20 -60 23 -208 26 l-166 4
1 -309z m309 186 c33 -15 49 -46 49 -93 -1 -33 -7 -47 -32 -68 -28 -26 -36
-28 -120 -28 l-90 0 0 100 0 100 85 0 c46 0 95 -5 108 -11z"/>
<path d="M4340 411 c0 -166 1 -304 3 -308 1 -5 70 -8 152 -8 179 0 229 13 303
80 69 62 96 127 97 230 0 68 -4 89 -28 137 -32 64 -80 111 -146 142 -39 17
-70 21 -213 24 l-168 4 0 -301z m351 162 c107 -66 118 -244 20 -326 -42 -35
-89 -47 -183 -47 l-77 0 0 201 1 201 101 -4 c84 -3 109 -7 138 -25z"/>
<path d="M5060 400 l0 -310 210 0 210 0 0 55 0 55 -150 0 -150 0 0 75 0 75
140 0 140 0 0 55 0 55 -140 0 -140 0 0 70 0 70 150 0 150 0 0 55 0 55 -210 0
-210 0 0 -310z"/>
</g>
</svg>
